Coordinates
version=1
nRows=12
nColumns=23
inDegrees=yes

Units are S.I. units (second, meters, Newtons, ...)
If the header above contains a line with 'inDegrees', this indicates whether rotational values are in degrees (yes) or radians (no).

endheader
time	pelvis_tilt	pelvis_list	pelvis_rotation	pelvis_tx	pelvis_ty	pelvis_tz	hip_flexion_r	hip_adduction_r	hip_rotation_r	knee_angle_r	knee_angle_r_beta	ankle_angle_r	subtalar_angle_r	mtp_angle_r	hip_flexion_l	hip_adduction_l	hip_rotation_l	knee_angle_l	knee_angle_l_beta	ankle_angle_l	subtalar_angle_l	mtp_angle_l
     22.50000000	     -5.84063628	     -7.73369508	    -10.93820657	      2.05505963	      0.96905832	      0.98227926	     10.91462892	     15.76758403	     10.30117396	     39.36674866	      0.68707938	     27.83727255	      4.77219506	      0.00000000	     36.34791318	    -12.20065284	     -0.78111441	    112.71966259	      1.96732924	     -1.20565330	    -17.78304409	      0.00000000
     22.50666667	     -6.36074301	     -6.89283892	    -11.19217838	      2.05540765	      0.97235694	      0.98287228	      9.00142708	     14.60567881	     11.06802905	     37.32328081	      0.65141414	     27.66124119	      5.48485500	      0.00000000	     38.57623484	    -11.74470461	     -1.00533485	    111.51950030	      1.94638246	     -0.41539802	    -17.71754737	      0.00000000
     22.51333333	     -5.44046948	     -6.58807649	    -10.69296775	      2.05748190	      0.97803430	      0.98237894	      5.07123227	     13.38085604	     10.85385180	     34.26084124	      0.59796448	     26.84841605	      6.51141120	      0.00000000	     38.95412548	    -11.16643161	     -0.78438056	    109.91166092	      1.91832037	      0.70954906	    -17.25257999	      0.00000000
     22.52000000	     -5.35670066	     -5.85726419	    -10.62485220	      2.05897057	      0.98256623	      0.98254907	      2.31613689	     12.01851917	     10.93798535	     31.58501712	      0.55126254	     25.71804685	      7.29727081	      0.00000000	     40.17110292	    -10.53024400	     -1.00550577	    108.16101975	      1.88776592	      1.62634813	    -17.04622986	      0.00000000
     22.52666667	     -5.22825725	     -5.12826305	    -10.55324722	      2.06065033	      0.98725296	      0.98281174	     -0.47929639	     10.65591266	     10.86967570	     28.80678280	      0.50277321	     24.07122694	      7.98839056	      0.00000000	     41.19255626	     -9.92067949	     -1.29860273	    106.19734437	      1.85349332	      2.52975946	    -16.82700952	      0.00000000
     22.53333333	     -5.30233135	     -4.30330288	    -10.34910784	      2.06242796	      0.99162330	      0.98295931	     -2.93893289	      9.25132286	     10.43926949	     26.09341851	      0.45541607	     21.93248598	      8.45525936	      0.00000000	     42.37849055	     -9.12261772	     -1.53535571	    104.06990568	      1.81636251	      3.35806644	    -16.65896267	      0.00000000
     22.54000000	     -5.41184968	     -3.48135277	    -10.12445206	      2.06426685	      0.99589353	      0.98318842	     -5.28344975	      7.92026088	      9.86178214	     23.43982638	      0.40910215	     19.32605923	      8.67767284	      0.00000000	     43.48922544	     -8.34922502	     -1.80260026	    101.77216540	      1.77625937	      4.11672649	    -16.47934274	      0.00000000
     22.54666667	     -5.91513317	     -2.58342963	     -9.95732272	      2.06586619	      0.99949903	      0.98363030	     -6.91396983	      6.63053087	      8.95068261	     21.23440630	      0.37061030	     16.27051539	      8.78142289	      0.00000000	     44.96294427	     -7.63929798	     -2.15459340	     99.35897577	      1.73414127	      4.77375181	    -16.25396142	      0.00000000
     22.55333333	     -5.74473253	     -1.95009760	     -9.54145029	      2.06782072	      1.00404886	      0.98378892	     -9.58332705	      5.68546487	      8.50297681	     18.42859066	      0.32163958	     12.81701730	      7.96773408	      0.00000000	     45.53062791	     -6.87952103	     -2.27295831	     96.71710522	      1.68803193	      5.37899190	    -16.14693235	      0.00000000
     22.56000000	     -6.23568109	     -1.26792159	     -9.07740008	      2.06946523	      1.00739613	      0.98389964	    -11.10420611	      4.82093317	      7.26803652	     16.38898510	      0.28604175	      9.24247052	      7.55571661	      0.00000000	     46.81083769	     -6.11193942	     -2.31104735	     94.02402418	      1.64102880	      5.85724626	    -16.06292345	      0.00000000
     22.56666667	     -6.50801689	     -0.71387512	     -8.68132420	      2.07105141	      1.01096960	      0.98416940	    -12.82952579	      4.16385319	      6.38895297	     14.37907975	      0.25096228	      5.33837141	      6.48676875	      0.00000000	     47.67688814	     -5.51377301	     -2.41287957	     91.15363153	      1.59093100	      6.23942458	    -16.00174983	      0.00000000
     22.57333333	     -7.20875040	     -0.21975307	     -8.11973363	      2.07251052	      1.01368916	      0.98418007	    -13.72701415	      3.65380298	      4.65302701	     13.06630370	      0.22805002	      1.70374687	      6.00310532	      0.00000000	     48.95747135	     -4.86470064	     -2.33005248	     88.19834919	      1.53935159	      6.63681885	    -15.72805799	      0.00000000
